<svg id="Layer_1_copy_4" data-name="Layer 1 copy 4" xmlns="http://www.w3.org/2000/svg" viewBox="0 0 29.7 29.7"><defs><style>.cls-1,.cls-10{fill:#f6d2a2;}.cls-1,.cls-2,.cls-3,.cls-4,.cls-6,.cls-7,.cls-8{stroke:#000;}.cls-1,.cls-10,.cls-2,.cls-3,.cls-4,.cls-6,.cls-7,.cls-8{stroke-linecap:round;}.cls-1,.cls-10,.cls-2,.cls-3,.cls-4,.cls-8{stroke-width:0.15px;}.cls-1,.cls-10,.cls-2,.cls-3,.cls-4,.cls-5,.cls-6,.cls-7,.cls-8{fill-rule:evenodd;}.cls-2{fill:#c6b198;}.cls-3{fill:#6ad7e5;}.cls-4{fill:none;}.cls-6,.cls-7,.cls-8,.cls-9{fill:#fff;}.cls-6{stroke-width:0.15px;}.cls-7{stroke-width:0.14px;}.cls-10{stroke:#231f20;}</style></defs><title>_01_languages logos [Recovered]</title><path class="cls-1" d="M5.31,15.9c0,.8.84.43,1.2.18S7,16,7,15.57a7.69,7.69,0,0,0,0-.93A2.27,2.27,0,0,0,5.51,15c-.22.16-.63.67-.2.87"/><path class="cls-2" d="M5.31,15.9a.63.63,0,0,0,.32-.18"/><path class="cls-3" d="M7.15,6.37c-3.06-.86-.79-4.76,1.67-3.15Z"/><path class="cls-3" d="M20.76,2.92c2.42-1.7,4.61,2.14,1.8,3.11Z"/><path class="cls-1" d="M21.28,25.74c.62.38,1.74,1.53.82,2.09-.89.81-1.38-.89-2.16-1.13A2.16,2.16,0,0,1,21.28,25.74Z"/><path class="cls-4" d="M22.1,27.84a2.62,2.62,0,0,0-.41-.81"/><path class="cls-1" d="M10.28,27c-.72.11-1.13.76-1.73,1.09s-.78-.11-.84-.2-.08,0-.22-.1C7,27,8,26.4,8.6,26,9.38,25.83,9.87,26.51,10.28,27Z"/><path class="cls-4" d="M7.71,27.94c0-.32.28-.53.4-.8"/><path class="cls-5" d="M7.28,5.29c-.4-.21-.7-.5-.45-1s.65-.39,1.06-.17Z"/><path class="cls-5" d="M21.92,4.89c.4-.21.7-.5.45-1s-.65-.39-1.06-.17Z"/><path class="cls-1" d="M24.7,15.8c0,.8-.84.43-1.2.18s-.44,0-.47-.51a7.68,7.68,0,0,1,0-.93,2.27,2.27,0,0,1,1.51.39c.22.16.63.67.2.87"/><path class="cls-2" d="M24.7,15.8a.63.63,0,0,1-.32-.18"/><path class="cls-3" d="M14.7,1.3c3.07,0,5.94.44,7.44,3.38C23.48,8,23,11.55,23.21,15c.18,3,.57,6.46-.82,9.23s-5.12,3.66-8.13,3.55c-2.36-.08-5.22-.86-6.56-3-1.57-2.53-.82-6.3-.71-9.12.13-3.34-.9-6.69.19-10S11.39,1.57,14.7,1.3"/><path class="cls-6" d="M15.24,5.42c.55,3.2,5.78,2.35,5-.87-.67-2.89-5.21-2.09-5,.87"/><path class="cls-7" d="M9,5.94C9.7,8.72,14.16,8,14,5.22c-.2-3.35-5.69-2.7-5,.72"/><path class="cls-8" d="M15.87,9.26a7.21,7.21,0,0,1,0,1.33c-.11.2-.31.22-.49.3a.73.73,0,0,1-.56-.43,9.41,9.41,0,0,1,0-1.5Z"/><ellipse cx="10.22" cy="5.48" rx="0.75" ry="0.82"/><ellipse class="cls-9" cx="10.56" cy="5.67" rx="0.18" ry="0.21"/><ellipse cx="16.53" cy="5.28" rx="0.74" ry="0.82"/><ellipse class="cls-9" cx="16.87" cy="5.46" rx="0.17" ry="0.21"/><path class="cls-8" d="M13.72,9.21c-.33.8.18,2.39,1.07,1.21a9.41,9.41,0,0,1,0-1.5Z"/><path class="cls-10" d="M13.83,7.68A1,1,0,0,0,13,9C13.46,9.8,14.4,9,15,9s1.23.71,1.77.13-.26-1.29-.93-1.57Z"/><path class="cls-5" d="M13.75,7.65c0-1.06,2-1.19,2.22-.31s-2.12,1.09-2.22.31Z"/></svg>